REM DIRINDEX 1\2\5,1\2\6,1\2\7,1\2\8,1\3\9,1\3\10,1\3\11,1\4\12,1\4\13,1\4\14,1\4\15,1\4\16
REM DIRNAME cjc034,folder01,folder02,folder03,folder04,folder05,folder06,folder07,folder08,folder09,folder10,folder11,folder12,folder13,folder14,folder15
TITLE ""
FILE "1200_sec03_1010_1018.mp3" MP3
  TRACK 01 AUDIO
    TITLE "0:"
    INDEX 01 00:00:00
  TRACK 02 AUDIO
    TITLE "12:cjc034_07723"
    INDEX 01 00:00:17
  TRACK 03 AUDIO
    TITLE "0:"
    INDEX 01 00:01:30
  TRACK 04 AUDIO
    TITLE "13:cjc034_07724"
    INDEX 01 00:01:62
  TRACK 05 AUDIO
    TITLE "0:"
    INDEX 01 00:03:70
  TRACK 06 AUDIO
    TITLE "14:cjc034_07725"
    INDEX 01 00:04:27
  TRACK 07 AUDIO
    TITLE "0:"
    INDEX 01 00:05:40
  TRACK 08 AUDIO
    TITLE "15:cjc034_07726"
    INDEX 01 00:05:71
  TRACK 09 AUDIO
    TITLE "0:"
    INDEX 01 00:09:45
  TRACK 10 AUDIO
    TITLE "12:cjc034_07727"
    INDEX 01 00:11:03
  TRACK 11 AUDIO
    TITLE "0:"
    INDEX 01 00:12:18
  TRACK 12 AUDIO
    TITLE "13:cjc034_07728"
    INDEX 01 00:12:48
  TRACK 13 AUDIO
    TITLE "0:"
    INDEX 01 00:15:05
  TRACK 14 AUDIO
    TITLE "14:cjc034_07729"
    INDEX 01 00:15:36
  TRACK 15 AUDIO
    TITLE "0:"
    INDEX 01 00:16:51
  TRACK 16 AUDIO
    TITLE "15:cjc034_07730"
    INDEX 01 00:17:10
  TRACK 17 AUDIO
    TITLE "0:"
    INDEX 01 00:20:34
  TRACK 18 AUDIO
    TITLE "12:cjc034_07731"
    INDEX 01 00:21:66
  TRACK 19 AUDIO
    TITLE "0:"
    INDEX 01 00:23:06
  TRACK 20 AUDIO
    TITLE "13:cjc034_07732"
    INDEX 01 00:23:42
  TRACK 21 AUDIO
    TITLE "0:"
    INDEX 01 00:24:31
  TRACK 22 AUDIO
    TITLE "14:cjc034_07733"
    INDEX 01 00:24:63
  TRACK 23 AUDIO
    TITLE "0:"
    INDEX 01 00:26:03
  TRACK 24 AUDIO
    TITLE "15:cjc034_07734"
    INDEX 01 00:26:36
  TRACK 25 AUDIO
    TITLE "0:"
    INDEX 01 00:29:27
  TRACK 26 AUDIO
    TITLE "12:cjc034_07735"
    INDEX 01 00:30:61
  TRACK 27 AUDIO
    TITLE "0:"
    INDEX 01 00:31:67
  TRACK 28 AUDIO
    TITLE "13:cjc034_07736"
    INDEX 01 00:32:25
  TRACK 29 AUDIO
    TITLE "0:"
    INDEX 01 00:34:47
  TRACK 30 AUDIO
    TITLE "14:cjc034_07737"
    INDEX 01 00:35:04
  TRACK 31 AUDIO
    TITLE "0:"
    INDEX 01 00:36:09
  TRACK 32 AUDIO
    TITLE "15:cjc034_07738"
    INDEX 01 00:36:46
  TRACK 33 AUDIO
    TITLE "0:"
    INDEX 01 00:41:36
  TRACK 34 AUDIO
    TITLE "16:cjc034_07739"
    INDEX 01 00:42:70
  TRACK 35 AUDIO
    TITLE "0:"
    INDEX 01 00:48:57
  TRACK 36 AUDIO
    TITLE "12:cjc034_07740"
    INDEX 01 00:49:61
  TRACK 37 AUDIO
    TITLE "0:"
    INDEX 01 00:51:24
  TRACK 38 AUDIO
    TITLE "13:cjc034_07741"
    INDEX 01 00:51:56
  TRACK 39 AUDIO
    TITLE "0:"
    INDEX 01 00:52:69
  TRACK 40 AUDIO
    TITLE "14:cjc034_07742"
    INDEX 01 00:53:29
  TRACK 41 AUDIO
    TITLE "0:"
    INDEX 01 00:54:66
  TRACK 42 AUDIO
    TITLE "15:cjc034_07743"
    INDEX 01 00:55:26
  TRACK 43 AUDIO
    TITLE "0:"
    INDEX 01 01:00:51
  TRACK 44 AUDIO
    TITLE "12:cjc034_07744"
    INDEX 01 01:02:12
  TRACK 45 AUDIO
    TITLE "0:"
    INDEX 01 01:03:39
  TRACK 46 AUDIO
    TITLE "13:cjc034_07745"
    INDEX 01 01:04:00
  TRACK 47 AUDIO
    TITLE "0:"
    INDEX 01 01:05:07
  TRACK 48 AUDIO
    TITLE "14:cjc034_07746"
    INDEX 01 01:05:38
  TRACK 49 AUDIO
    TITLE "0:"
    INDEX 01 01:06:67
  TRACK 50 AUDIO
    TITLE "15:cjc034_07747"
    INDEX 01 01:07:27
  TRACK 51 AUDIO
    TITLE "0:"
    INDEX 01 01:11:00
  TRACK 52 AUDIO
    TITLE "12:cjc034_07748"
    INDEX 01 01:12:30
  TRACK 53 AUDIO
    TITLE "0:"
    INDEX 01 01:13:55
  TRACK 54 AUDIO
    TITLE "13:cjc034_07749"
    INDEX 01 01:14:16
  TRACK 55 AUDIO
    TITLE "0:"
    INDEX 01 01:15:48
  TRACK 56 AUDIO
    TITLE "14:cjc034_07750"
    INDEX 01 01:16:11
  TRACK 57 AUDIO
    TITLE "0:"
    INDEX 01 01:17:35
  TRACK 58 AUDIO
    TITLE "15:cjc034_07751"
    INDEX 01 01:17:69
  TRACK 59 AUDIO
    TITLE "0:"
    INDEX 01 01:22:66
  TRACK 60 AUDIO
    TITLE "12:cjc034_07752"
    INDEX 01 01:24:28
  TRACK 61 AUDIO
    TITLE "0:"
    INDEX 01 01:25:49
  TRACK 62 AUDIO
    TITLE "13:cjc034_07753"
    INDEX 01 01:26:07
  TRACK 63 AUDIO
    TITLE "0:"
    INDEX 01 01:27:22
  TRACK 64 AUDIO
    TITLE "14:cjc034_07754"
    INDEX 01 01:27:55
  TRACK 65 AUDIO
    TITLE "0:"
    INDEX 01 01:29:01
  TRACK 66 AUDIO
    TITLE "15:cjc034_07755"
    INDEX 01 01:29:35
  TRACK 67 AUDIO
    TITLE "0:"
    INDEX 01 01:32:60
  TRACK 68 AUDIO
    TITLE "12:cjc034_07756"
    INDEX 01 01:34:18
  TRACK 69 AUDIO
    TITLE "0:"
    INDEX 01 01:35:57
  TRACK 70 AUDIO
    TITLE "13:cjc034_07757"
    INDEX 01 01:36:15
  TRACK 71 AUDIO
    TITLE "0:"
    INDEX 01 01:37:09
  TRACK 72 AUDIO
    TITLE "14:cjc034_07758"
    INDEX 01 01:37:40
  TRACK 73 AUDIO
    TITLE "0:"
    INDEX 01 01:39:00
  TRACK 74 AUDIO
    TITLE "15:cjc034_07759"
    INDEX 01 01:39:37
  TRACK 75 AUDIO
    TITLE "0:"
    INDEX 01 01:44:30
